<?xml version="1.0" encoding="UTF-8" standalone="no"?>
<svg
   inkscape:export-ydpi="96"
   inkscape:export-xdpi="96"
   inkscape:export-filename="1024x1024.png"
   sodipodi:docname="crewtimerv3-video-white.svg"
   inkscape:version="1.2.2 (b0a8486, 2022-12-01)"
   version="1.1"
   id="svg2"
   height="1024"
   width="1024"
   xmlns:inkscape="http://www.inkscape.org/namespaces/inkscape"
   xmlns:sodipodi="http://sodipodi.sourceforge.net/DTD/sodipodi-0.dtd"
   xmlns:xlink="http://www.w3.org/1999/xlink"
   xmlns="http://www.w3.org/2000/svg"
   xmlns:svg="http://www.w3.org/2000/svg"
   xmlns:rdf="http://www.w3.org/1999/02/22-rdf-syntax-ns#"
   xmlns:cc="http://creativecommons.org/ns#"
   xmlns:dc="http://purl.org/dc/elements/1.1/">
  <defs
     id="defs4">
    <inkscape:path-effect
       effect="fillet_chamfer"
       id="path-effect5412"
       is_visible="true"
       lpeversion="1"
       nodesatellites_param="F,0,0,1,0,10,0,1 @ F,0,0,1,0,10,0,1 @ F,0,0,1,0,10,0,1 @ F,0,0,1,0,10,0,1"
       unit="px"
       method="auto"
       mode="F"
       radius="10"
       chamfer_steps="1"
       flexible="false"
       use_knot_distance="true"
       apply_no_radius="true"
       apply_with_radius="true"
       only_selected="false"
       hide_knots="false" />
    <linearGradient
       id="linearGradient4091"
       inkscape:collect="always">
      <stop
         id="stop4093"
         offset="0"
         style="stop-color:#1b4488;stop-opacity:1;" />
      <stop
         id="stop4095"
         offset="1"
         style="stop-color:#1b4488;stop-opacity:0;" />
    </linearGradient>
    <linearGradient
       id="linearGradient3902">
      <stop
         id="stop3904"
         offset="0"
         style="stop-color:#ffffff;stop-opacity:1;" />
      <stop
         id="stop3906"
         offset="1"
         style="stop-color:#fff9f9;stop-opacity:0.72868216;" />
    </linearGradient>
    <linearGradient
       id="linearGradient4110">
      <stop
         id="stop4112"
         offset="0"
         style="stop-color:#0eb0fb;stop-opacity:1;" />
      <stop
         id="stop4114"
         offset="1"
         style="stop-color:#ff00f3;stop-opacity:1;" />
    </linearGradient>
    <linearGradient
       id="linearGradient4483">
      <stop
         id="stop4485"
         offset="0"
         style="stop-color:#056aff;stop-opacity:1;" />
      <stop
         id="stop4487"
         offset="1"
         style="stop-color:#ffffff;stop-opacity:0;" />
    </linearGradient>
    <linearGradient
       gradientTransform="matrix(1.2524295,0,0,1.2524296,-146.91309,-129.30104)"
       gradientUnits="userSpaceOnUse"
       y2="1029.1136"
       x2="467.15973"
       y1="513.90118"
       x1="509.1376"
       id="linearGradient3908"
       xlink:href="#linearGradient3902"
       inkscape:collect="always" />
    <mask
       id="mask3961"
       maskUnits="userSpaceOnUse">
      <rect
         ry="71.875"
         y="0"
         x="0"
         height="1024"
         width="1024"
         id="rect3963"
         style="fill:#ffffff;fill-opacity:1;stroke:none" />
    </mask>
    <linearGradient
       gradientUnits="userSpaceOnUse"
       y2="1697.4375"
       x2="511.68015"
       y1="28.6875"
       x1="511.68015"
       id="linearGradient4097"
       xlink:href="#linearGradient4091"
       inkscape:collect="always" />
    <inkscape:path-effect
       effect="fillet_chamfer"
       id="path-effect5412-4"
       is_visible="true"
       lpeversion="1"
       nodesatellites_param="F,0,0,1,0,10,0,1 @ F,0,0,1,0,10,0,1 @ F,0,0,1,0,10,0,1 @ F,0,0,1,0,10,0,1"
       unit="px"
       method="auto"
       mode="F"
       radius="10"
       chamfer_steps="1"
       flexible="false"
       use_knot_distance="true"
       apply_no_radius="true"
       apply_with_radius="true"
       only_selected="false"
       hide_knots="false" />
  </defs>
  <sodipodi:namedview
     inkscape:document-rotation="0"
     guidetolerance="10"
     objecttolerance="10"
     showborder="false"
     borderlayer="true"
     inkscape:showpageshadow="false"
     inkscape:window-maximized="0"
     inkscape:window-y="73"
     inkscape:window-x="523"
     inkscape:window-height="1186"
     inkscape:window-width="2287"
     fit-margin-bottom="0"
     fit-margin-right="0"
     fit-margin-left="0"
     fit-margin-top="0"
     inkscape:guide-bbox="true"
     showguides="true"
     showgrid="false"
     inkscape:current-layer="layer4"
     inkscape:document-units="px"
     inkscape:cy="523.47339"
     inkscape:cx="476.14566"
     inkscape:zoom="0.69726562"
     inkscape:pageshadow="2"
     inkscape:pageopacity="0"
     borderopacity="1.0"
     bordercolor="#666666"
     pagecolor="#ffffff"
     id="base"
     inkscape:pagecheckerboard="0"
     inkscape:deskcolor="#d1d1d1">
    <sodipodi:guide
       inkscape:locked="false"
       id="guide3101"
       position="-10.429825,956.71547"
       orientation="0,1" />
    <sodipodi:guide
       inkscape:locked="false"
       id="guide3103"
       position="956.5625,59.8125"
       orientation="1,0" />
    <sodipodi:guide
       inkscape:locked="false"
       id="guide3105"
       position="1246.875,315.625"
       orientation="0,1" />
    <sodipodi:guide
       inkscape:locked="false"
       id="guide3107"
       position="67.351921,64.523494"
       orientation="1,0" />
    <sodipodi:guide
       inkscape:locked="false"
       id="guide3109"
       position="961.5,67.5"
       orientation="0,1" />
    <sodipodi:guide
       inkscape:locked="false"
       id="guide3111"
       position="319.08193,67.707547"
       orientation="1,0" />
    <sodipodi:guide
       inkscape:locked="false"
       id="guide3113"
       position="511.68014,67.707547"
       orientation="1,0" />
    <sodipodi:guide
       inkscape:locked="false"
       id="guide3115"
       position="706.1875,64.734375"
       orientation="1,0" />
    <sodipodi:guide
       inkscape:locked="false"
       id="guide3117"
       position="-21.213203,1024"
       orientation="0,1" />
    <sodipodi:guide
       inkscape:locked="false"
       id="guide3119"
       position="0,0"
       orientation="0,1" />
    <sodipodi:guide
       inkscape:locked="false"
       id="guide3121"
       position="0,1042.6289"
       orientation="1,0" />
    <sodipodi:guide
       inkscape:locked="false"
       id="guide3123"
       position="-6.8942911,705"
       orientation="0,1" />
    <sodipodi:guide
       inkscape:locked="false"
       id="guide3125"
       position="1024,1037.75"
       orientation="1,0" />
    <sodipodi:guide
       inkscape:locked="false"
       id="guide3127"
       position="-27.223611,512.65241"
       orientation="0,1" />
    <inkscape:grid
       snapvisiblegridlinesonly="false"
       enabled="true"
       visible="true"
       empspacing="5"
       id="grid4235"
       type="xygrid" />
    <sodipodi:guide
       position="674.06163,754.37535"
       orientation="0,-1"
       id="guide3956"
       inkscape:locked="false" />
    <sodipodi:guide
       position="583.70869,497.65826"
       orientation="0,-1"
       id="guide3958"
       inkscape:locked="false" />
    <sodipodi:guide
       position="316.95238,863.37255"
       orientation="0,-1"
       id="guide5492"
       inkscape:locked="false" />
  </sodipodi:namedview>
  <metadata
     id="metadata7">
    <rdf:RDF>
      <cc:Work
         rdf:about="">
        <dc:format>image/svg+xml</dc:format>
        <dc:type
           rdf:resource="http://purl.org/dc/dcmitype/StillImage" />
      </cc:Work>
    </rdf:RDF>
  </metadata>
  <g
     inkscape:groupmode="layer"
     id="g4214"
     inkscape:label="Black Background"
     style="display:none">
    <rect
       transform="matrix(1.2642405,0,0,1.1044304,-140.96203,-24.303797)"
       style="fill:#000000;fill-opacity:1;stroke:none"
       id="rect4216"
       width="1024"
       height="1024"
       x="0"
       y="0"
       mask="url(#mask3961)" />
  </g>
  <g
     style="display:none"
     inkscape:label="WhiteBackground"
     id="layer9"
     inkscape:groupmode="layer">
    <rect
       inkscape:export-ydpi="95.959999"
       inkscape:export-xdpi="95.959999"
       inkscape:export-filename="/Users/glenne/git/crewtimer-mobile/images/crewtimer-1024-text.png"
       mask="url(#mask3961)"
       y="0"
       x="0"
       height="1024"
       width="1024"
       id="rect4123"
       style="display:inline;fill:#ffffff;fill-opacity:1;stroke:none" />
    <circle
       style="display:inline;fill:#ffffff;fill-opacity:1;stroke:#ffffff;stroke-width:12;stroke-linejoin:round;stroke-dasharray:none;stroke-opacity:1"
       id="path5575"
       cx="377.18768"
       cy="127.64146"
       r="21.512606" />
  </g>
  <g
     sodipodi:insensitive="true"
     style="display:none"
     mask="url(#mask3961)"
     inkscape:label="Background"
     id="layer7"
     inkscape:groupmode="layer">
    <rect
       y="0"
       x="0"
       height="1024"
       width="1024"
       id="rect3764"
       style="display:inline;fill:url(#linearGradient4097);fill-opacity:1;stroke:none" />
    <rect
       y="724"
       x="0"
       height="300"
       width="1024"
       id="rect5264"
       style="display:inline;fill:#6c7d96;fill-opacity:1;stroke:none" />
  </g>
  <g
     style="display:inline"
     inkscape:label="Rower"
     id="layer4"
     inkscape:groupmode="layer">
    <rect
       y="722"
       x="0"
       height="30"
       width="1024.4293"
       id="rect3784"
       style="fill:#ffffff;fill-opacity:1;stroke:none" />
  </g>
  <g
     inkscape:groupmode="layer"
     id="layer8"
     inkscape:label="Video">
    <path
       id="rect542"
       style="fill:#ffffff;stroke:#ffffff;stroke-width:2.12653;stroke-linejoin:round"
       d="m 295.36914,207.98047 c -16.6163,0 -29.99414,14.83265 -29.99414,33.25586 v 181.49414 c 0,18.42321 13.37784,33.25586 29.99414,33.25586 h 424.65625 c 16.6163,0 29.99414,-14.83265 29.99414,-33.25586 V 241.23633 c 0,-18.42321 -13.37784,-33.25586 -29.99414,-33.25586 z m 34.45117,35.80078 h 360.05664 c 5.54,0 10,3.28703 10,7.36914 v 25.41992 c 0,4.0821 -4.46,7.36719 -10,7.36719 H 329.82031 c -5.53998,0 -10,-3.28509 -10,-7.36719 v -25.41992 c 0,-4.08211 4.46002,-7.36914 10,-7.36914 z m 180.89649,55.93359 h 186.14062 c 2.86407,0 5.16992,3.28509 5.16992,7.36719 v 25.41992 c 0,4.0821 -2.30585,7.36914 -5.16992,7.36914 H 510.7168 c -2.86407,0 -5.16993,-3.28704 -5.16992,-7.36914 v -25.41992 c 0,-4.0821 2.30585,-7.36719 5.16992,-7.36719 z" />
    <path
       style="fill:#ffffff;stroke:#ffffff;stroke-width:1px;stroke-linecap:butt;stroke-linejoin:round;stroke-opacity:1"
       d="m 775,260.95238 v 150.66667 a 14.530841,14.530841 55.464585 0 0 9.34023,13.57214 l 71.31954,27.27589 A 6.8819142,6.8819142 145.46459 0 0 865,446.03922 V 217.92717 a 6.3033705,6.3033705 32.22475 0 0 -9.02205,-5.68694 l -71.9559,34.39909 A 15.864528,15.864528 122.22475 0 0 775,260.95238 Z"
       id="path3130"
       sodipodi:nodetypes="ccccc"
       inkscape:path-effect="#path-effect5412"
       inkscape:original-d="m 775,250.95238 v 170.66667 l 90,34.42017 V 207.92717 Z" />
    <path
       style="fill:#ffffff;stroke:#ffffff;stroke-width:0.68046px;stroke-linecap:butt;stroke-linejoin:round;stroke-opacity:1"
       d="m 247.3784,291.31889 0,87.85878 a 13.82908,13.82908 125.87121 0 1 -9.49658,13.13289 l -46.94571,15.48726 a 7.2311389,7.2311389 35.871214 0 1 -9.49658,-6.86711 V 264.1276 a 6.6931731,6.6931731 146.20492 0 1 9.24481,-6.18771 l 47.44925,19.56671 a 14.940597,14.940597 56.20492 0 1 9.24481,13.81229 z"
       id="path3130-6"
       sodipodi:nodetypes="ccccc"
       inkscape:path-effect="#path-effect5412-4"
       inkscape:original-d="m 247.3784,281.31889 v 107.85878 l -65.93887,21.75304 V 254.1276 Z"
       inkscape:transform-center-x="19.964312"
       inkscape:transform-center-y="4.6178657" />
  </g>
  <g
     style="display:none"
     inkscape:label="Rower Long Oar"
     id="layer5"
     inkscape:groupmode="layer">
    <path
       sodipodi:nodetypes="ccccc"
       inkscape:connector-curvature="0"
       id="path123"
       d="m 900,447.4375 -25,-9.375 -455.8125,548.4375 34.375,-1.5625 z"
       style="fill:#ffffff;fill-opacity:1;stroke:none;stroke-width:1px;stroke-linecap:butt;stroke-linejoin:miter;stroke-opacity:1" />
  </g>
  <g
     style="display:inline"
     inkscape:label="Text"
     id="layer3"
     inkscape:groupmode="layer">
    <text
       id="text3970"
       y="939.00323"
       x="20.8125"
       style="font-style:italic;font-variant:normal;font-weight:bold;font-stretch:normal;line-height:0%;font-family:Century;-inkscape-font-specification:'Century Bold Italic';text-align:start;letter-spacing:0px;word-spacing:0px;writing-mode:lr-tb;text-anchor:start;fill:#ffffff;fill-opacity:1;stroke:none"
       xml:space="preserve"><tspan
         style="font-size:185px;line-height:1.25"
         y="939.00323"
         x="20.8125"
         id="tspan3972"
         sodipodi:role="line">Crew</tspan></text>
    <text
       id="text3970-7"
       y="939.66199"
       x="570.62231"
       style="font-style:italic;font-variant:normal;font-weight:bold;font-stretch:normal;line-height:0%;font-family:Century;-inkscape-font-specification:'Century Bold Italic';text-align:start;letter-spacing:0px;word-spacing:0px;writing-mode:lr-tb;text-anchor:start;fill:#ffffff;fill-opacity:1;stroke:none"
       xml:space="preserve"><tspan
         style="font-size:185px;line-height:1.25"
         y="939.66199"
         x="570.62231"
         id="tspan3972-2"
         sodipodi:role="line">imer</tspan></text>
    <rect
       ry="9.7215185"
       y="806"
       x="449.9375"
       height="24"
       width="262"
       id="rect3989"
       style="fill:#ffffff;fill-opacity:1;stroke:none" />
    <path
       sodipodi:nodetypes="ccccc"
       inkscape:connector-curvature="0"
       id="path4250"
       d="m 589.0625,822.4375 -137.5,162.5 -30.375,1.5625 137.5,-164.0625 z"
       style="fill:#ffffff;fill-opacity:1;fill-rule:evenodd;stroke:none;stroke-width:1px;stroke-linecap:butt;stroke-linejoin:miter;stroke-opacity:1" />
    <path
       sodipodi:nodetypes="ccccc"
       inkscape:connector-curvature="0"
       id="path4250-5-9"
       d="M 518.41545,501.67744 692.74051,751.44349 752.26244,746.26983 579.37156,501.67744 Z"
       style="display:inline;fill:#ffffff;fill-opacity:1;fill-rule:evenodd;stroke:none;stroke-width:1.44099;stroke-linecap:butt;stroke-linejoin:miter;stroke-dasharray:none;stroke-opacity:1" />
    <path
       sodipodi:nodetypes="ccccc"
       inkscape:connector-curvature="0"
       id="path4250-5-9-2"
       d="M 495.54535,504.00214 321.22029,750.89984 261.69836,745.7856 434.58924,504.00214 Z"
       style="display:inline;fill:#ffffff;fill-opacity:1;fill-rule:evenodd;stroke:none;stroke-width:1.43269;stroke-linecap:butt;stroke-linejoin:miter;stroke-dasharray:none;stroke-opacity:1" />
  </g>
  <g
     sodipodi:insensitive="true"
     style="display:none"
     transform="translate(50.25,211.52169)"
     id="layer1"
     inkscape:groupmode="layer"
     inkscape:label="BORDER">
    <path
       style="fill:none;stroke:#000000;stroke-opacity:1"
       id="path5"
       d="m 301.95446,-211.52169 319.59108,0 c 101.4156,0 152.12339,0 206.7084,17.25959 59.59748,21.69173 106.54481,68.63899 128.23654,128.236542 C 973.75,-11.44076 973.75,39.267072 973.75,140.68273 l 0,319.59116 c 0,101.41566 0,152.12349 -17.25952,206.70829 -21.69173,59.59758 -68.63906,106.54477 -128.23654,128.23654 -54.58501,17.25959 -105.2928,17.25959 -206.7084,17.25959 l -319.59108,0 c -101.4156,0 -152.12339,0 -206.708396,-17.25959 C 35.648581,773.52695 -11.298747,726.57976 -32.99048,666.98218 -50.25,612.39738 -50.25,561.68955 -50.25,460.27389 l 0,-319.59116 c 0,-101.415658 0,-152.12349 17.25952,-206.708254 21.691733,-59.597546 68.639061,-106.544846 128.236544,-128.236576 54.585006,-17.25959 105.292796,-17.25959 206.708396,-17.25959 l 0,0"
       inkscape:connector-curvature="0" />
  </g>
  <g
     sodipodi:insensitive="true"
     style="display:none"
     inkscape:label="iOS MASK"
     id="layer6"
     inkscape:groupmode="layer">
    <path
       sodipodi:nodetypes="csssssssssssccc"
       inkscape:connector-curvature="0"
       id="path4146"
       d="m -0.03515625,708.40625 c 0.05564213,38.75762 0.61632351,71.02215 3.48917125,100.18549 0.8757813,8.89038 2.0231286,17.50673 3.364698,25.91301 2.7291509,17.10087 6.251639,30.63186 10.624705,44.6288 0.983104,3.14664 2.343873,6.00913 3.546782,8.89844 4.954414,11.90016 10.441772,22.62502 16.75229,32.23106 7.482354,11.38984 16.590926,23.44234 26.690428,33.79613 11.282296,11.56636 22.163363,20.60638 34.238258,28.7856 7.753914,5.2523 15.167714,9.80978 23.655414,13.91931 3.34329,1.61873 6.78353,3.25751 10.45545,4.87471 6.01057,2.6472 12.64725,5.2405 20.38236,7.4312 16.33865,4.6274 37.83594,9.5058 66.67436,11.7859 26.04947,2.0596 58.07248,3.2184 99.20801,3.1754 l -319.08192625,0 z"
       style="color:#000000;fill:#ffffff;fill-opacity:1;fill-rule:nonzero;stroke:none;stroke-width:2;marker:none;visibility:visible;display:inline;overflow:visible;enable-background:accumulate" />
    <path
       sodipodi:nodetypes="cssssssssccc"
       inkscape:connector-curvature="0"
       id="path4146-5"
       d="m 1024,708.375 c -0.028,33.52476 -0.3641,57.51886 -2.1872,86.13032 -2.1429,33.63123 -7.6767,62.03085 -16.1313,85.82727 -5.1582,14.5187 -11.40374,27.32387 -18.62968,38.55822 -10.39312,16.15845 -22.65083,31.16786 -36.89519,44.46448 -6.86448,6.40775 -13.96935,11.81612 -21.91877,17.50161 -10.37402,7.41958 -20.2254,13.06198 -32.1818,18.6383 -10.69022,4.9858 -23.165,9.4996 -39.90567,13.451 -11.58454,2.7344 -25.21186,5.3376 -41.70422,7.0737 -27.23282,2.8667 -62.17789,3.4121 -108.25867,3.9801 L 1024,1024 z"
       style="color:#000000;fill:#ffffff;fill-opacity:1;fill-rule:nonzero;stroke:none;stroke-width:2;marker:none;visibility:visible;display:inline;overflow:visible;enable-background:accumulate" />
    <path
       sodipodi:nodetypes="cssssssssssccc"
       inkscape:connector-curvature="0"
       id="path4146-5-3"
       d="m 1023.9571,318.26274 c 0.1837,-39.14081 -0.2997,-73.55855 -3.476,-103.94061 -1.4113,-13.49969 -3.8539,-26.31006 -5.9548,-38.18792 -3.6187,-20.45841 -10.1174,-38.44655 -17.2973,-52.70888 -2.12747,-4.22606 -3.90726,-7.55456 -5.77779,-10.81658 -1.49793,-2.61224 -3.05404,-5.18185 -4.89348,-8.13563 -1.96035,-3.14791 -3.87346,-6.195884 -5.993,-9.197124 C 974.88453,87.232938 968.40279,79.35023 961.65509,72.082687 951.58996,61.242143 940.4011,51.100793 927.77306,42.698049 909.73264,30.693887 894.47219,21.390417 866.08729,13.614807 853.18652,10.080839 837.40303,6.7460486 817.42751,4.3881848 790.09127,1.1614792 754.65731,0.08073128 706.1875,0 L 1024,0 z"
       style="color:#000000;fill:#ffffff;fill-opacity:1;fill-rule:nonzero;stroke:none;stroke-width:2;marker:none;visibility:visible;display:inline;overflow:visible;enable-background:accumulate" />
    <path
       sodipodi:nodetypes="csssssccc"
       inkscape:connector-curvature="0"
       id="path4146-5-3-7"
       d="M 0,318.48 C 0.04438432,264.21497 1.9515494,215.42652 8.7981727,178.4577 14.754939,146.29372 24.640519,123.97857 37.889606,103.37989 53.29125,79.434582 73.01483,58.195063 97.250401,42.030991 111.80438,32.324119 124.48551,25.310001 143.39137,18.055461 153.25339,14.271217 164.74156,11.469151 178.08885,8.8727346 208.3231,2.9913388 250.69975,-0.29260813 319.08193,0 L 0,0 z"
       style="color:#000000;fill:#ffffff;fill-opacity:1;fill-rule:nonzero;stroke:none;stroke-width:2;marker:none;visibility:visible;display:inline;overflow:visible;enable-background:accumulate" />
  </g>
  <g
     sodipodi:insensitive="true"
     transform="translate(0,-2.2054443)"
     style="display:none"
     inkscape:label="GUIDES"
     id="layer2"
     inkscape:groupmode="layer">
    <path
       inkscape:connector-curvature="0"
       id="path4024"
       d="m 0.99801512,321.03518 0,386.27669"
       style="color:#000000;fill:none;stroke:#000000;stroke-width:2;stroke-linecap:butt;stroke-linejoin:miter;stroke-miterlimit:4;stroke-opacity:1;stroke-dasharray:none;stroke-dashoffset:0;marker:none;visibility:visible;display:inline;overflow:visible;enable-background:accumulate" />
    <path
       transform="matrix(1.988799,0,0,1.988471,-407.91018,-80.585593)"
       d="m 600.32144,298.86218 a 138,138 0 0 1 -138,138 138,138 0 0 1 -138,-138 138,138 0 0 1 138,-138 138,138 0 0 1 138,138 z"
       sodipodi:ry="138"
       sodipodi:rx="138"
       sodipodi:cy="298.86218"
       sodipodi:cx="462.32144"
       id="path3129"
       style="color:#000000;fill:none;stroke:#000000;stroke-width:1.00571477;stroke-linecap:butt;stroke-linejoin:miter;stroke-miterlimit:4;stroke-opacity:1;stroke-dasharray:none;stroke-dashoffset:0;marker:none;visibility:visible;display:inline;overflow:visible;enable-background:accumulate"
       sodipodi:type="arc" />
    <path
       transform="matrix(3.2215081,0,0,3.2211587,-977.38931,-448.55899)"
       d="m 600.32144,298.86218 a 138,138 0 0 1 -138,138 138,138 0 0 1 -138,-138 138,138 0 0 1 138,-138 138,138 0 0 1 138,138 z"
       sodipodi:ry="138"
       sodipodi:rx="138"
       sodipodi:cy="298.86218"
       sodipodi:cx="462.32144"
       id="path3129-9"
       style="color:#000000;fill:none;stroke:#000000;stroke-width:0.62086099;stroke-linecap:butt;stroke-linejoin:miter;stroke-miterlimit:4;stroke-opacity:1;stroke-dasharray:none;stroke-dashoffset:0;marker:none;visibility:visible;display:inline;overflow:visible;enable-background:accumulate"
       sodipodi:type="arc" />
    <path
       sodipodi:nodetypes="cc"
       inkscape:connector-curvature="0"
       id="path4011"
       d="M 67.351921,69.489974 956.5625,958.70544"
       style="color:#000000;fill:none;stroke:#000000;stroke-width:2;stroke-linecap:butt;stroke-linejoin:miter;stroke-miterlimit:4;stroke-opacity:1;stroke-dasharray:none;stroke-dashoffset:0;marker:none;visibility:visible;display:inline;overflow:visible;enable-background:accumulate" />
    <path
       inkscape:connector-curvature="0"
       id="path4028"
       d="m 0.99801467,707.31189 1022.00298533,0"
       style="color:#000000;fill:none;stroke:#000000;stroke-width:2;stroke-linecap:butt;stroke-linejoin:miter;stroke-miterlimit:4;stroke-opacity:1;stroke-dasharray:none;stroke-dashoffset:0;marker:none;visibility:visible;display:inline;overflow:visible;enable-background:accumulate" />
    <path
       inkscape:connector-curvature="0"
       id="path4030"
       d="m 0.99801467,513.69318 1022.00298533,0"
       style="color:#000000;fill:none;stroke:#000000;stroke-width:2;stroke-linecap:butt;stroke-linejoin:miter;stroke-miterlimit:4;stroke-opacity:1;stroke-dasharray:none;stroke-dashoffset:0;marker:none;visibility:visible;display:inline;overflow:visible;enable-background:accumulate" />
    <path
       inkscape:connector-curvature="0"
       id="path4032"
       d="m 0.99801467,321.0352 1022.00298533,0"
       style="color:#000000;fill:none;stroke:#000000;stroke-width:2;stroke-linecap:butt;stroke-linejoin:miter;stroke-miterlimit:4;stroke-opacity:1;stroke-dasharray:none;stroke-dashoffset:0;marker:none;visibility:visible;display:inline;overflow:visible;enable-background:accumulate" />
    <path
       sodipodi:nodetypes="cc"
       inkscape:connector-curvature="0"
       id="path4034"
       d="m 319.08193,1026.2054 0,-1023.9999557"
       style="color:#000000;fill:none;stroke:#000000;stroke-width:2;stroke-linecap:butt;stroke-linejoin:miter;stroke-miterlimit:4;stroke-opacity:1;stroke-dasharray:none;stroke-dashoffset:0;marker:none;visibility:visible;display:inline;overflow:visible;enable-background:accumulate" />
    <path
       sodipodi:nodetypes="cc"
       inkscape:connector-curvature="0"
       id="path4036"
       d="m 511.68014,2.2054443 0,1023.9999557"
       style="color:#000000;fill:none;stroke:#000000;stroke-width:2;stroke-linecap:butt;stroke-linejoin:miter;stroke-miterlimit:4;stroke-opacity:1;stroke-dasharray:none;stroke-dashoffset:0;marker:none;visibility:visible;display:inline;overflow:visible;enable-background:accumulate" />
    <path
       sodipodi:nodetypes="cc"
       inkscape:connector-curvature="0"
       id="path4038"
       d="m 706.1875,1026.2054 0,-1023.9999557"
       style="color:#000000;fill:none;stroke:#000000;stroke-width:2;stroke-linecap:butt;stroke-linejoin:miter;stroke-miterlimit:4;stroke-opacity:1;stroke-dasharray:none;stroke-dashoffset:0;marker:none;visibility:visible;display:inline;overflow:visible;enable-background:accumulate" />
    <path
       sodipodi:nodetypes="cc"
       inkscape:connector-curvature="0"
       id="path4001"
       d="M 67.351921,958.70544 956.5625,69.489974"
       style="color:#000000;fill:none;stroke:#000000;stroke-width:2;stroke-linecap:butt;stroke-linejoin:miter;stroke-miterlimit:4;stroke-opacity:1;stroke-dasharray:none;stroke-dashoffset:0;marker:none;visibility:visible;display:inline;overflow:visible;enable-background:accumulate" />
    <path
       sodipodi:nodetypes="cc"
       inkscape:connector-curvature="0"
       id="path4003"
       d="m 956.5625,69.489974 0,889.215466"
       style="color:#000000;fill:none;stroke:#000000;stroke-width:2;stroke-linecap:butt;stroke-linejoin:miter;stroke-miterlimit:4;stroke-opacity:1;stroke-dasharray:none;stroke-dashoffset:0;marker:none;visibility:visible;display:inline;overflow:visible;enable-background:accumulate" />
    <path
       sodipodi:nodetypes="cc"
       inkscape:connector-curvature="0"
       id="path4009"
       d="m 67.351921,69.489974 889.210579,0"
       style="color:#000000;fill:none;stroke:#000000;stroke-width:2;stroke-linecap:butt;stroke-linejoin:miter;stroke-miterlimit:4;stroke-opacity:1;stroke-dasharray:none;stroke-dashoffset:0;marker:none;visibility:visible;display:inline;overflow:visible;enable-background:accumulate" />
    <path
       sodipodi:nodetypes="cc"
       inkscape:connector-curvature="0"
       id="path4007"
       d="m 67.351921,958.70544 0,-889.215466"
       style="color:#000000;fill:none;stroke:#000000;stroke-width:2;stroke-linecap:butt;stroke-linejoin:miter;stroke-miterlimit:4;stroke-opacity:1;stroke-dasharray:none;stroke-dashoffset:0;marker:none;visibility:visible;display:inline;overflow:visible;enable-background:accumulate" />
    <path
       sodipodi:nodetypes="cc"
       inkscape:connector-curvature="0"
       id="path4005"
       d="m 956.5625,958.70544 -889.210579,-3e-5"
       style="color:#000000;fill:none;stroke:#000000;stroke-width:2;stroke-linecap:butt;stroke-linejoin:miter;stroke-miterlimit:4;stroke-opacity:1;stroke-dasharray:none;stroke-dashoffset:0;marker:none;visibility:visible;display:inline;overflow:visible;enable-background:accumulate" />
    <path
       transform="matrix(1.4025564,0,0,1.3964479,-135.79717,96.569794)"
       d="m 600.32144,298.86218 a 138,138 0 0 1 -138,138 138,138 0 0 1 -138,-138 138,138 0 0 1 138,-138 138,138 0 0 1 138,138 z"
       sodipodi:ry="138"
       sodipodi:rx="138"
       sodipodi:cy="298.86218"
       sodipodi:cx="462.32144"
       id="path3129-7"
       style="color:#000000;fill:none;stroke:#000000;stroke-width:1.42908275;stroke-linecap:butt;stroke-linejoin:miter;stroke-miterlimit:4;stroke-opacity:1;stroke-dasharray:none;stroke-dashoffset:0;marker:none;visibility:visible;display:inline;overflow:visible;enable-background:accumulate"
       sodipodi:type="arc" />
  </g>
</svg>
